<?xml version="1.0" standalone="no"?>
<!DOCTYPE svg PUBLIC "-//W3C//DTD SVG 20010904//EN"
 "http://www.w3.org/TR/2001/REC-SVG-20010904/DTD/svg10.dtd">
<svg version="1.0" xmlns="http://www.w3.org/2000/svg"
 width="260.000000pt" height="260.000000pt" viewBox="0 0 260.000000 260.000000"
 preserveAspectRatio="xMidYMid meet">
<metadata>
Created by potrace 1.14, written by Peter Selinger 2001-2017
</metadata>
<g transform="translate(0.000000,260.000000) scale(0.100000,-0.100000)"
fill="#000000" stroke="none">
<path d="M1079 2596 c-2 -2 -29 -7 -59 -10 -66 -8 -234 -52 -273 -72 -15 -8
-31 -22 -34 -30 -7 -20 -93 -62 -116 -56 -17 3 -125 -74 -177 -128 -50 -52
-105 -116 -125 -144 -11 -15 -24 -34 -30 -40 -5 -6 -18 -25 -27 -41 -31 -54
-72 -130 -73 -135 -1 -3 -9 -23 -19 -45 -68 -152 -107 -335 -111 -527 -3 -123
-1 -141 16 -162 20 -25 35 -141 17 -130 -18 12 3 -92 44 -211 37 -109 159
-340 198 -375 3 -3 23 -27 44 -54 35 -43 62 -71 141 -145 46 -43 155 -116 230
-153 83 -42 205 -91 205 -83 0 3 17 -2 38 -10 85 -33 303 -55 329 -33 18 15
123 21 123 8 0 -21 143 0 275 40 75 23 278 117 283 131 2 5 8 9 14 9 14 0 126
86 176 137 24 24 48 43 53 43 5 0 9 5 9 11 0 7 8 19 18 28 84 74 240 361 226
415 -6 27 24 128 37 121 10 -7 25 46 45 170 8 49 13 277 7 288 -3 4 -7 34 -9
65 -2 31 -6 68 -9 82 -3 14 -8 41 -11 60 -4 19 -9 40 -13 45 -3 6 -7 19 -8 29
-12 75 -145 353 -174 364 -5 2 -9 10 -9 18 0 8 -4 14 -10 14 -5 0 -10 8 -10
17 0 9 -3 13 -6 10 -4 -3 -20 12 -35 33 -16 22 -34 40 -40 40 -5 0 -7 5 -4 10
3 6 0 10 -7 10 -7 0 -19 9 -26 20 -7 12 -18 20 -25 18 -17 -3 -57 12 -57 21 0
4 -11 13 -25 19 -14 6 -25 18 -25 26 0 27 -53 65 -175 125 -146 72 -267 112
-435 143 -53 9 -363 21 -371 14z"/>
</g>
</svg>
